<?xml version="1.0" encoding="utf-8"?>
<svg version="1.1" id="Row_1_1_" xmlns="http://www.w3.org/2000/svg" xmlns:xlink="http://www.w3.org/1999/xlink" x="0px" y="0px"
	 width="34px" height="34px" viewBox="0 0 34 34" enable-background="new 0 0 34 34" xml:space="preserve">

		<path d="M31,27h-4V7.477l1.691-1.771c0.394-0.395,0.394-1.034,0-1.428c-0.395-0.395-1.033-0.395-1.427,0L25.619,6H7V3
			c0-0.553-0.448-1-1-1C5.447,2,5,2.447,5,3v3H2C1.447,6,1,6.447,1,7s0.447,1,1,1h3v20c0,0.092,0.029,0.175,0.053,0.259
			c0.01,0.038,0.008,0.077,0.022,0.113c0.102,0.252,0.3,0.451,0.552,0.553c0.043,0.018,0.089,0.016,0.134,0.026
			C5.839,28.972,5.915,29,6,29h19v3c0,0.553,0.447,1,1,1c0.552,0,1-0.447,1-1v-3h4c0.552,0,1-0.447,1-1S31.552,27,31,27z M7,8
			h16.709L7,25.491V8z M25,27H8.35L25,9.57V27z"/>

</svg>
