<?xml version="1.0" encoding="utf-8"?>
<svg version="1.1" id="Row_1_1_" xmlns="http://www.w3.org/2000/svg" xmlns:xlink="http://www.w3.org/1999/xlink" x="0px" y="0px"
	 width="34px" height="34px" viewBox="0 0 34 34" enable-background="new 0 0 34 34" xml:space="preserve">

		<path d="M8,23.286V23H7.787C7.853,23.1,7.932,23.188,8,23.286z M20.268,11.021c-0.521-0.147-1.056,0.179-1.195,0.729l-2.35,9.278
			C15.198,21.17,14,22.438,14,24c0,1.657,1.343,3,3,3s3-1.343,3-3c0-1.056-0.548-1.98-1.373-2.515l2.33-9.201
			C21.097,11.734,20.788,11.168,20.268,11.021z M18,25h-2v-2h2V25z M26,23.286c0.068-0.098,0.147-0.187,0.213-0.286H26V23.286z
			 M17,1C8.163,1,1,8.163,1,17s7.163,16,16,16s16-7.163,16-16S25.837,1,17,1z M26,27.717V28h-0.358c-2.381,1.873-5.377,3-8.642,3
			s-6.261-1.127-8.642-3H8v-0.283C4.945,25.148,3,21.303,3,17C3,9.268,9.268,3,17,3c7.731,0,14,6.268,14,14
			C31,21.303,29.055,25.148,26,27.717z M17,6C10.925,6,6,10.925,6,17h2c0-4.971,4.029-9,9-9s9,4.029,9,9h2C28,10.925,23.075,6,17,6z
			"/>

</svg>
